<?xml version="1.0" encoding="UTF-8"?>
<svg id="Layer_1" data-name="Layer 1" xmlns="http://www.w3.org/2000/svg" xmlns:xlink="http://www.w3.org/1999/xlink" viewBox="0 0 1024 1024">
  <defs>
    <style>
      .cls-1 {
        fill: none;
      }

      .cls-2 {
        fill: #003b71;
      }

      .cls-3 {
        fill: url(#linear-gradient-5);
      }

      .cls-4 {
        fill: url(#linear-gradient-4);
      }

      .cls-5 {
        fill: url(#linear-gradient-3);
      }

      .cls-6 {
        fill: url(#linear-gradient-2);
      }

      .cls-7 {
        fill: url(#linear-gradient);
      }

      .cls-8 {
        fill: #76777a;
      }
    </style>
    <linearGradient id="linear-gradient" x1="575.07" y1="516.34" x2="340.58" y2="383.69" gradientTransform="translate(1.87 .66) rotate(-.07)" gradientUnits="userSpaceOnUse">
      <stop offset="0" stop-color="#fff"/>
      <stop offset=".2" stop-color="#e8eb8f"/>
      <stop offset=".76" stop-color="#a9cb38"/>
      <stop offset="1" stop-color="#8ec23f"/>
    </linearGradient>
    <linearGradient id="linear-gradient-2" x1="555.54" y1="429.09" x2="336.88" y2="282.84" gradientTransform="translate(1.87 .66) rotate(-.07)" gradientUnits="userSpaceOnUse">
      <stop offset="0" stop-color="#e6ea91"/>
      <stop offset=".01" stop-color="#e2e88b"/>
      <stop offset=".09" stop-color="#d4e070"/>
      <stop offset=".15" stop-color="#cbdb5f"/>
      <stop offset=".2" stop-color="#c8da5a"/>
      <stop offset=".4" stop-color="#a0c73a"/>
      <stop offset=".74" stop-color="#7cb940"/>
      <stop offset="1" stop-color="#65b145"/>
    </linearGradient>
    <linearGradient id="linear-gradient-3" x1="585.33" y1="384.53" x2="366.69" y2="238.3" xlink:href="#linear-gradient-2"/>
    <linearGradient id="linear-gradient-4" x1="477.36" y1="545.93" x2="258.71" y2="399.69" xlink:href="#linear-gradient-2"/>
    <linearGradient id="linear-gradient-5" x1="450.43" y1="586.21" x2="231.79" y2="439.97" xlink:href="#linear-gradient-2"/>
  </defs>
  <path class="cls-1" d="M1024.37,511.05c.37,282.77-228.57,512.3-511.35,512.66C230.25,1024.08.74,795.14.38,512.37,0,229.6,228.93.07,511.7-.29c282.78-.36,512.3,228.57,512.67,511.34Z"/>
  <path class="cls-1" d="M910.98,511.19c.28,220.14-177.96,398.83-398.08,399.11-220.15.28-398.84-177.95-399.11-398.08-.3-220.13,177.93-398.83,398.08-399.1,220.12-.29,398.83,177.94,399.11,398.07Z"/>
  <path class="cls-1" d="M837.93,506.04c.24,178.72-144.46,323.78-323.17,324.01-178.73.23-323.79-144.46-324.02-323.18-.23-178.72,144.45-323.77,323.18-324.01,178.72-.23,323.79,144.44,324.01,323.17Z"/>
  <g>
    <g>
      <path class="cls-8" d="M839.65,807.48s-8.27,8.7-9.27,9.75c1.11,1.04,19.78,18.84,19.78,18.84l-10.54,11.06s-18.69-17.78-19.78-18.83c-.98,1.01-8.95,9.39-9.91,10.42,1.09,1.04,19.76,18.84,19.76,18.84,0,0-12.95,13.61-14.01,14.71,1,.96,8.23,7.83,9.23,8.79,1.11-1.17,67.36-70.71,68.48-71.87-1.02-.95-8.27-7.84-9.24-8.79-1.09,1.14-24.05,25.24-24.05,25.24,0,0-18.68-17.79-19.78-18.84-.31.34-.66.69-.66.69Z"/>
      <path class="cls-8" d="M867.65,796.96c-1.14-1.1-39.6-37.73-40.73-38.84-.33.35-.66.69-.66.69,0,0-57.53,60.38-58.64,61.57,1,.95,8.21,7.83,9.2,8.77,1.13-1.17,49.4-51.86,49.4-51.86,0,0,30.39,28.96,31.56,30.05l9.88-10.39Z"/>
    </g>
    <path class="cls-8" d="M163.4,827.22c-10.07,9.42-9.74,26.19.76,37.39,10.5,11.21,27.19,12.69,37.28,3.26,10.06-9.42,9.74-26.21-.77-37.42-10.49-11.22-27.19-12.66-37.27-3.23ZM172.63,836.85c5.37-5.01,14.25-4.26,19.77,1.63,5.54,5.94,5.7,14.84.34,19.84-5.36,5.02-14.23,4.29-19.83-1.61-5.5-5.95-5.62-14.85-.28-19.86Z"/>
    <path class="cls-8" d="M255.55,816.54s-7.89-8.41-8.86-9.42c-1.04.96-11.49,10.76-11.49,10.76,0,0-10.21-10.93-11.19-11.98-1,.92-7.97,7.45-8.93,8.37.96,1.02,11.18,11.96,11.18,11.96,0,0-14.03,13.13-15.12,14.15.92.98,8.53,9.13,9.47,10.11,1.13-1.04,34.45-32.23,35.56-33.28-.32-.34-.63-.66-.63-.66Z"/>
    <path class="cls-8" d="M213.23,770.91s-50.79,2.11-52.39,2.19c.09,1.38.84,12.53.95,13.87,1.52-.1,37.54-2.15,37.54-2.15,0,0-4.4,33.81-4.61,35.32,1.34.17,12.4,1.69,13.76,1.86.17-1.56,5.63-49.34,5.85-51.15-.55,0-1.09.05-1.09.05Z"/>
    <path class="cls-8" d="M629.5,985.54l13.74-2.37-15.58-90.59c-.44.09-.92.17-.92.17,0,0-11.4,1.97-12.8,2.2.24,1.53,4.8,27.85,4.8,27.85l-8.11,1.39s-4.53-26.31-4.77-27.85l-13.89,2.4,9.91,57.52c-10.99,1.88-43.57,7.49-43.57,7.49l-7.63-44.26s30.69-5.28,32.18-5.54l-1.96-11.46s-.08.01-.2.04l-45.68,7.86c2.82,16.31,11.5,66.6,11.72,67.9l57.21-9.82,3.6,20.89,13.87-2.36c-.26-1.53-8.72-50.63-8.72-50.63l8.09-1.39s8.42,49.05,8.68,50.57Z"/>
    <path class="cls-8" d="M349.5,915.79s-1.54-.82-4.23-2.25l17.05-32.05c-.4-.22-.83-.42-.83-.42,0,0-71.82-38.24-73.22-38.97l-5.87,11.02c1.39.73,61.61,32.78,61.61,32.78,0,0-6.84,12.84-11.17,21.03l-67.18-35.76-5.85,10.99c1.34.71,26.4,14.04,26.4,14.04,0,0-7.03,13.18-7.7,14.47l12.58,6.72c.68-1.3,7.72-14.48,7.72-14.48l11.21,5.96s-7.01,13.17-7.71,14.46l12.61,6.73c.66-1.29,7.7-14.47,7.7-14.47,0,0,20.54,10.92,21.86,11.64l5.85-11.01c-.39-.2-.82-.42-.82-.42ZM273.78,899.31l-12.42-6.6-15.38,28.88,75.55,40.23,5.89-11.01c-1.42-.73-63.17-33.61-63.17-33.61,0,0,8.82-16.55,9.52-17.89Z"/>
    <path class="cls-8" d="M409.16,955.12c-.46-.07-.9-.14-.9-.14,0,0-11.59-1.81-13-2.02l-5.09,32.33,85.2,13.37,1.92-12.32c-1.54-.24-71.27-11.17-71.27-11.17,0,0,2.89-18.54,3.13-20.04ZM486.42,923.8s2.28-14.44,2.49-15.89c-.4-.04-.88-.11-.88-.11,0,0-11.56-1.84-12.98-2.04l-5.89,37.54-14.06-2.21,5.61-35.89c-.44-.07-.89-.14-.89-.14,0,0-56.67-8.89-58.21-9.14l-1.96,12.35c1.54.24,45.22,7.08,45.22,7.08,0,0-2.53,16.19-3.7,23.54-7.87-1.22-13.99-2.19-13.99-2.19,0,0,1.87-11.73,2.09-13.14-.43-.05-.89-.12-.89-.12,0,0-11.81-1.86-13.22-2.07-.21,1.39-2.04,13.12-2.04,13.12,0,0-20.02-3.13-21.49-3.36l-1.93,12.34,77.56,12.17-2.27,14.4,13.86,2.18c.25-1.52,5.67-36.17,5.67-36.17,0,0,12.81,2.01,14.25,2.25l1.9-12.25c-1.41-.22-14.23-2.24-14.23-2.24Z"/>
    <path class="cls-8" d="M737.78,838.2s-10.1,5.59-11.35,6.29c.78,1.32,25.51,45.94,26.27,47.28,1.19-.65,10.93-6.05,12.12-6.72-.71-1.33-12.65-22.84-12.65-22.84,0,0,11.06-6.15,12.31-6.84-.63-1.16-5.25-9.51-5.92-10.66-1.26.7-12.32,6.83-12.32,6.83,0,0-6.95-12.53-7.66-13.81-.39.24-.79.47-.79.47Z"/>
    <path class="cls-8" d="M767,891.15s-74.29,41.21-75.67,41.98c.65,1.19,5.34,9.64,6,10.79,1.36-.76,64.33-35.68,64.33-35.68,0,0,8.44,15.2,9.14,16.51,1.21-.68,10.96-6.08,12.16-6.76-.72-1.32-14.42-25.98-15.16-27.28-.42.21-.81.44-.81.44Z"/>
    <path class="cls-8" d="M714.68,852.91l-22.54,12.5s-.06.01-.07.01l-4.11-7.42-12.33,6.82,4.14,7.46-22.92,12.71,5.74,10.31,8.27-4.58c-.37,4.86.57,9.84,3.09,14.38,7.16,12.89,24.01,17.24,37.64,9.66,13.63-7.53,18.86-24.14,11.72-37.04-2.54-4.53-6.24-7.95-10.57-10.23l7.67-4.29-5.72-10.29ZM705.28,902.71c-6.53,3.62-14.61,1.54-18.04-4.66-3.44-6.17-.94-14.1,5.6-17.73,6.52-3.62,14.57-1.53,18.01,4.66,3.43,6.17.91,14.11-5.57,17.73Z"/>
  </g>
  <g>
    <path class="cls-8" d="M989.24,548.68l-10.63-6.66c11.18-5.13,11.53-16.3,11.53-16.3.43-8.72-4.67-15.02-12.13-14.97-9.85.08-13.46,8.8-17.6,18.87-4.52,10.83-11.44,22.19-25.22,23.02-16.67,1.01-27.96-13.73-27.12-34,.83-19.73,14.46-29.19,14.46-29.19l12.53,5.77s-17.62,5.81-18.74,27.05c-.5,9.42,6.4,16.7,15.63,16.64,9.87-.08,13.36-8.49,17.42-18.29,4.54-10.97,9.68-23.4,25.38-23.52,15.36-.12,24.65,12.05,23.74,30.95,0,0-.25,12.1-9.25,20.64Z"/>
    <path class="cls-8" d="M67.44,686.95l12.44,1.35c-7.81,9.51-3.23,19.71-3.23,19.71,3.44,8.03,10.77,11.46,17.46,8.14,8.83-4.39,8.25-13.8,7.59-24.68-.69-11.72.57-24.95,12.59-31.73,14.55-8.2,31.16.11,39.26,18.71,7.9,18.1-.2,32.57-.2,32.57l-13.84.31s13.33-12.95,5.02-32.53c-3.66-8.68-13.07-12.22-21.33-8.11-8.85,4.37-8.3,13.47-7.65,24.06.72,11.86,1.53,25.29-12.53,32.26-13.74,6.82-27.43-.04-34.86-17.44,0,0-5.09-10.98-.71-22.61Z"/>
    <path class="cls-8" d="M53.95,375.02l-.9.86c-1.59,1.63-10.68,11.13-14.61,29.98-6.01,28.91,7.45,50.36,34.01,55.88,27.16,5.64,46.9-7.84,52.77-36.13,2.31-11.06,2.74-22.42,1.26-33.82l-.14-1.08-33-6.86-2.8,13.45,27.84,5.72c1.6,6.5.96,13.16.02,17.71-4.54,21.86-19.99,31.2-43.51,26.31-22.01-4.57-33.23-19.05-29.05-39.13,2.11-10.12,8.72-20.06,16.96-24.69l.59-.37-9.44-7.83Z"/>
    <path class="cls-8" d="M137.3,202.95l-7.72,11,19.57,40.79-45.1-4.46-9.82,13.98,58.72,3.36c.7.49,29.39,20.6,29.39,20.6l7.87-11.22s-29.66-20.77-30.28-21.19l-22.64-52.87Z"/>
    <path class="cls-8" d="M940.4,741.44l5.38-12.29-27.14-36.2,45.11-4.43,6.9-15.64-58.25,8.17c-.77-.35-32.84-14.48-32.84-14.48l-5.55,12.56s33.17,14.57,33.84,14.86l32.54,47.44Z"/>
    <path class="cls-8" d="M110.24,322.94l-18.23-53.14-6.17,12.51,17.17,49.97c-2.34-1.14-33.58-16.54-33.58-16.54l-6.06,12.31,77.09,37.88,6.06-12.35-37.37-18.31,52.76-12.96,7.67-15.64-59.35,16.26Z"/>
    <path class="cls-8" d="M367.42,91.8l25.4-50.13-13.31,4.31-23.82,47.13c-.83-2.47-11.51-35.62-11.51-35.62l-13.09,4.25,26.6,81.7,13.08-4.25-12.9-39.58,46.06,28.79,16.57-5.4-53.07-31.2Z"/>
    <polygon class="cls-8" points="439.08 118.91 449.36 117.89 465.53 50 493.25 113.5 505.04 112.34 525 23.99 513.19 25.16 497.02 95.03 468.44 29.63 460.62 30.4 444.63 100.15 417.63 34.73 403.19 36.13 439.08 118.91"/>
    <path class="cls-8" d="M572.49,30.36l-6.05-.73-47.04,81.98,11.72,1.47,17.31-30.77,26.33,3.17,9.12,33.97,16.01,1.93-27.39-91.01ZM565.7,49.18c1.48,5.03,5.92,24.45,6.93,27.87l-20.94-2.52,14.02-25.34Z"/>
    <polygon class="cls-8" points="909.25 234.64 838.15 282.78 845.81 294.11 916.89 245.95 909.25 234.64"/>
    <polygon class="cls-8" points="991.35 581.42 906.56 567.82 904.39 581.31 989.19 594.9 991.35 581.42"/>
    <path class="cls-8" d="M780.82,166.93c-11.97,17.49-24.61,20.34-38.07,11.13-15.19-10.4-15.7-20.87-3.04-39.39l27.08-39.56-11.25-7.68-27.74,40.57c-5.86,8.78-11.31,18.8-8.85,29.07,2.13,8.9,8.17,16.64,18.13,23.46,19.03,13.03,36.82,9.79,50.09-9.61l28.86-42.16-8.08-5.54-27.16,39.71Z"/>
    <path class="cls-8" d="M225.88,181.77c14.86,15.13,15.21,28.07,3.57,39.5-13.14,12.89-23.49,11.38-39.2-4.65l-33.6-34.2-9.71,9.55,34.44,35.03c7.51,7.45,16.26,14.75,26.82,14.31,9.13-.37,17.91-4.79,26.53-13.25,16.45-16.16,16.71-34.24.25-51.02l-35.82-36.45-6.97,6.85,33.7,34.31Z"/>
    <path class="cls-8" d="M82.1,587c20.65-4.92,31.91,1.44,35.68,17.32,4.28,17.91-2.36,25.99-24.19,31.2l-46.64,11.13,3.18,13.26,47.78-11.44c10.26-2.58,21.03-6.32,26.08-15.62,4.41-8,5.56-17.89,2.76-29.62-5.36-22.43-21.12-31.89-43.98-26.43l-49.7,11.86,2.27,9.53,46.77-11.2Z"/>
    <polygon class="cls-8" points="865.2 326.3 868.75 333.21 961.64 325.95 955.94 314.9 882.81 322.1 931.13 266.77 924.11 253.16 865.2 326.3"/>
    <path class="cls-8" d="M898.33,378.93c2.55-.82,27.44-8.71,29.94-9.51l9.02,28.39,8.3-2.65-8.99-28.39c2.43-.77,24.63-7.8,27.05-8.57l9.8,30.94,7.04-2.22-13.91-43.92-81.87,25.95,14.14,44.65,9.52-3.02-10.04-31.67Z"/>
    <path class="cls-8" d="M987.46,610.73l-6.89-1.94-7.2,25.67c-2.81-.79-75.79-21.22-75.79-21.22l-3.69,13.12,75.75,21.24-6.83,24.59,6.94,1.9,17.7-63.35Z"/>
    <path class="cls-8" d="M902.63,427.04l1.71,13.54,41.4-5.5-36.55,42.05,1.92,14.47,36.54-41.83c2.42,13.96,13.76,25.03,26.11,23.4,14.09-1.88,20.09-11.59,17.6-30.52l-3.57-26.89-85.16,11.28ZM953.82,434c2.48-.32,25.91-3.43,28.42-3.76l1.72,12.91c1.4,10.71-4.25,16.06-11.97,16.79-8.05.76-14.67-2.62-16.64-14.68l-1.54-11.24Z"/>
    <path class="cls-8" d="M285.7,82.49l-8.29,5.27,32.77,51.58c-30.19-7.8-82.8-19.77-82.8-19.77l-5.89,3.72,46.02,72.47,8.3-5.26s-19.14-30.16-34.48-54.3l85.5,21.91,4.98-3.14-46.11-72.47Z"/>
    <path class="cls-8" d="M27.5,482.69l.2,9.83,61.11-1.3c-22.31,21.78-59.83,60.58-59.83,60.58l.13,6.95,85.87-1.81-.21-9.83s-35.71.76-64.32,1.37l63.03-61.77-.12-5.89-85.86,1.88Z"/>
    <path class="cls-8" d="M701.81,64.72l-9.32-3.14-19.47,57.93c-12.94-28.37-36.74-76.8-36.74-76.8l-6.59-2.24-27.36,81.4,9.31,3.13s11.38-33.86,20.5-60.98l36.76,80.22,5.59,1.88,27.32-81.4Z"/>
    <path class="cls-8" d="M892.17,209.49l-6.7-7.19-44.75,41.62c2.16-31.11,4.36-85.04,4.36-85.04l-4.73-5.1-62.87,58.48,6.68,7.19s26.17-24.32,47.11-43.82l-5.96,88.06,4.01,4.31,62.86-58.52Z"/>
  </g>
  <g>
    <g>
      <path class="cls-7" d="M543.21,404.37c-.08-70.17,56.57-127.13,126.56-127.22,16.93-.02,33.09,3.31,47.84,9.34-112.21-103.27-286.88-100.4-395.57,8.54-105.29,105.57-110.8,272.9-16.8,385.02,24.3-31.91,57.59-68.74,98.46-97.55,31.9-22.5,76.22-45.02,111.83-48.42,33.73-3.22,83.95-.03,114.38,14.54-23.81-24.35-48.9-51.66-61.2-68.01-15.97-21.21-25.45-47.62-25.48-76.23Z"/>
      <path class="cls-6" d="M534.33,497.25l-134.24-257.77c-24.74,11.94-48.07,27.65-69.24,47.15l202.6,210.29.88.33Z"/>
      <path class="cls-5" d="M535.04,497.52l17.33-284.94c-23.15-2.27-46.52-1.74-69.55,1.62l51.95,283.22.27.1Z"/>
      <path class="cls-4" d="M533.45,496.92l-276.02-102.14c-9.34,24.49-15.18,50.02-17.55,75.8l294.27,27.07-.7-.74Z"/>
      <path class="cls-3" d="M241.72,538.2c2.89,19.89,7.95,39.55,15.04,58.59l276.6-98.4-291.64,39.81Z"/>
      <path class="cls-2" d="M299.99,749.88c-8.31-7.25-22.54-20.65-35.29-37.06-58.42-65.36-125.24-236.9-14.6-392.71,45.68-64.24,111.26-107.53,176.44-125.13,152.03-41.06,268.95,30.66,322.53,88.49,5.95,6.44,5.11,14.67.59,18.47-6.63,5.58-12.61,2.69-25.99-1.17-20.84-6.03-38.78-7.43-58.07-4.94-44.66,5.75-83.31,47.23-77.88,105.1,4.97,52.82,45.76,90.93,74.39,116.09,100.61,88.35,67.11,183.23,58.94,204.08-27.69,70.77-98.82,120.76-191.12,120.87-38.33.05-93.73-9.82-149.45-45.04-2.15-.96-4.28-3.83-1.66-8.58,4.23-10.76,21.97-42.16,29.63-51.23,27.71,31.94,74.46,61.98,126.33,63.81,70.91,2.5,116.57-35.93,133.24-84.67,18.75-54.73-1.34-110.48-54.4-160.73-45.73-43.32-86.54-83.41-89.01-152.22-3.13-88.13,73.54-140.59,144.85-137.17,2.15.11-98.69-72.44-227.92-28.99-63.25,21.3-101.08,58.69-119.23,79.97-2.7,3.3-1,5.79-.06,7.12,2.02,2.88,46.05,64.13,46.05,64.13l-79.3-18.13s-3.31-.78-4.94,1.91c-25.15,43.49-62.12,169.15,20.95,283.48,0,0,70.48-111.97,210.7-121.68,9.33-.63,8.16,2.71,2.03,4.94-125.22,46.2-174.52,138.14-206.36,209.03-1.96,4.39-7.15,5.68-11.4,1.95Z"/>
    </g>
    <g>
      <path class="cls-8" d="M429.01,663.39s7.81-3.5,10.03-4.73l.08,54.33h9.83s-.09-63.91-.09-63.91l-1.59-1.06-.51.25c-7.14,3.56-14.46,6.91-20.67,9.45l2.92,5.67Z"/>
      <path class="cls-8" d="M481.24,680.99c7.96,0,11.83,4.09,11.85,12.53.01,8.62-5.34,14.21-13.63,14.22-6,0-10.07-4.01-11.55-5.74l-1.22-1.41-2.35,8.46.76.36c3.43,1.62,7.79,3.27,14.18,3.26,14.01-.01,24.17-8.56,24.16-20.31-.01-10.77-8.32-13.86-13.39-14.76,5.51-2.35,10.48-7.4,10.47-15.04-.01-8.96-7.08-14.47-18.42-14.5-9.61-.05-14.5,6.26-14.5,6.26l4.21,7.31.71-2.06c1.13-3.29,4.65-6.62,9.23-6.64,4.06,0,8.76,2.66,8.78,10.22.01,5.88-1.61,12.89-9.3,12.9l-5.1-.39v6.04s2.86-.76,5.11-.7Z"/>
      <path class="cls-8" d="M516.86,699.94l2.63,10.33s4.08,2.34,9.81,2.32c16.39-.08,27.82-15.42,27.78-37.45-.02-24.55-15-27.18-21.42-27.17-12.48.02-21.17,8.44-21.16,20.49.02,11.78,7.16,19.09,18.68,19.08,5.85,0,10.4-2.31,13.78-6.61-.65,13.72-6.06,26.25-17.27,26.33-8.99.07-12.84-7.34-12.84-7.34ZM534.71,682.18c-6.87,0-10.2-4.49-10.21-13.71-.01-9.32,4.44-15.59,11.09-15.6,6.64,0,11.12,5.3,11.13,13.2.01,8-4.1,16.1-12.01,16.11Z"/>
      <path class="cls-8" d="M596.12,675.78c5.57-2.5,9.19-7.54,9.18-13.54,0-6.61-4.81-14.34-18.39-14.32-10.31.02-18.05,6.65-18.04,15.45,0,6.56,4.46,11.17,9.24,12.93-7.93,3.15-12.43,9.24-12.42,17.49.01,11.22,8.56,18.76,21.3,18.75,12.36-.02,21.3-8.81,21.29-20.89-.02-11.15-8.25-14.77-12.15-15.86ZM578.29,663.47c0-2.5.62-10.66,8.72-10.67,7.99-.01,8.87,7.44,8.88,10.65,0,2.5-.63,10.66-8.86,10.67-8.1.01-8.74-8.15-8.74-10.65ZM586.99,707.59c-6.76.01-11.33-5.72-11.34-14.27-.01-8.55,4.54-14.29,11.3-14.3,6.76,0,11.29,5.72,11.3,14.27.01,8.68-4.4,14.3-11.27,14.31Z"/>
    </g>
  </g>
</svg>