<?xml version="1.0" encoding="UTF-8"?>
<svg id="Layer_1" data-name="Layer 1" xmlns="http://www.w3.org/2000/svg" xmlns:xlink="http://www.w3.org/1999/xlink" viewBox="0 0 1024 1024">
  <defs>
    <style>
      .cls-1 {
        fill: none;
      }

      .cls-2 {
        fill: #003b71;
      }

      .cls-3 {
        fill: url(#linear-gradient-5);
      }

      .cls-4 {
        fill: url(#linear-gradient-4);
      }

      .cls-5 {
        fill: url(#linear-gradient-3);
      }

      .cls-6 {
        fill: url(#linear-gradient-2);
      }

      .cls-7 {
        fill: #231f20;
      }

      .cls-8 {
        fill: url(#linear-gradient);
      }

      .cls-9 {
        fill: #003e31;
      }

      .cls-10 {
        fill: #76777a;
      }

      .cls-11 {
        opacity: 0;
      }
    </style>
    <linearGradient id="linear-gradient" x1="541.42" y1="433.84" x2="426.92" y2="369.07" gradientTransform="translate(1.87 .66) rotate(-.07)" gradientUnits="userSpaceOnUse">
      <stop offset="0" stop-color="#fff"/>
      <stop offset=".2" stop-color="#e8eb8f"/>
      <stop offset=".76" stop-color="#a9cb38"/>
      <stop offset="1" stop-color="#8ec23f"/>
    </linearGradient>
    <linearGradient id="linear-gradient-2" x1="531.88" y1="391.24" x2="425.12" y2="319.83" gradientTransform="translate(1.87 .66) rotate(-.07)" gradientUnits="userSpaceOnUse">
      <stop offset="0" stop-color="#e6ea91"/>
      <stop offset=".01" stop-color="#e2e88b"/>
      <stop offset=".09" stop-color="#d4e070"/>
      <stop offset=".15" stop-color="#cbdb5f"/>
      <stop offset=".2" stop-color="#c8da5a"/>
      <stop offset=".4" stop-color="#a0c73a"/>
      <stop offset=".74" stop-color="#7cb940"/>
      <stop offset="1" stop-color="#65b145"/>
    </linearGradient>
    <linearGradient id="linear-gradient-3" x1="546.43" y1="369.48" x2="439.68" y2="298.08" xlink:href="#linear-gradient-2"/>
    <linearGradient id="linear-gradient-4" x1="493.71" y1="448.29" x2="386.95" y2="376.88" xlink:href="#linear-gradient-2"/>
    <linearGradient id="linear-gradient-5" x1="480.56" y1="467.95" x2="373.8" y2="396.55" xlink:href="#linear-gradient-2"/>
  </defs>
  <g>
    <path class="cls-1" d="M762,431.25c.18,138.07-111.61,250.15-249.68,250.32-138.07.18-250.14-111.6-250.31-249.68-.18-138.07,111.6-250.14,249.67-250.32,138.08-.18,250.15,111.61,250.33,249.68Z"/>
    <path class="cls-1" d="M706.63,431.32c.14,107.49-86.9,194.74-194.38,194.88-107.5.14-194.75-86.89-194.88-194.37-.14-107.49,86.88-194.74,194.38-194.88,107.48-.14,194.74,86.89,194.88,194.37Z"/>
    <path class="cls-1" d="M670.96,428.81c.12,87.26-70.54,158.1-157.8,158.21-87.27.11-158.1-70.53-158.22-157.8-.11-87.27,70.53-158.09,157.8-158.21,87.27-.11,158.1,70.53,158.21,157.8Z"/>
    <g class="cls-11">
      <g>
        <path class="cls-7" d="M671.8,576s-4.04,4.25-4.53,4.76c.54.51,9.66,9.2,9.66,9.2l-5.15,5.4s-9.13-8.68-9.66-9.2c-.48.49-4.37,4.59-4.84,5.09.53.51,9.65,9.2,9.65,9.2,0,0-6.32,6.64-6.84,7.18.49.47,4.02,3.82,4.51,4.29.54-.57,32.89-34.52,33.44-35.09-.5-.47-4.04-3.83-4.51-4.29-.53.56-11.74,12.32-11.74,12.32,0,0-9.12-8.69-9.66-9.2-.15.16-.32.34-.32.34Z"/>
        <path class="cls-7" d="M685.47,570.86c-.56-.54-19.33-18.43-19.89-18.96-.16.17-.32.34-.32.34,0,0-28.09,29.48-28.63,30.06.49.46,4.01,3.82,4.49,4.28.55-.57,24.12-25.32,24.12-25.32,0,0,14.84,14.14,15.41,14.67l4.82-5.07Z"/>
      </g>
      <path class="cls-7" d="M341.6,585.64c-4.92,4.6-4.75,12.79.37,18.26,5.12,5.48,13.28,6.2,18.21,1.59,4.91-4.6,4.75-12.8-.38-18.27-5.12-5.48-13.28-6.18-18.2-1.58ZM346.11,590.34c2.62-2.44,6.96-2.08,9.65.79,2.7,2.9,2.79,7.24.17,9.69-2.62,2.45-6.95,2.1-9.68-.79-2.69-2.91-2.74-7.25-.14-9.7Z"/>
      <path class="cls-7" d="M386.59,580.42s-3.85-4.11-4.33-4.6c-.51.47-5.61,5.25-5.61,5.25,0,0-4.99-5.34-5.47-5.85-.49.45-3.89,3.64-4.36,4.09.47.5,5.46,5.84,5.46,5.84,0,0-6.85,6.41-7.38,6.91.45.48,4.16,4.46,4.63,4.94.55-.51,16.82-15.74,17.37-16.25-.16-.17-.31-.32-.31-.32Z"/>
      <path class="cls-7" d="M365.94,558.14s-24.8,1.03-25.58,1.07c.05.67.41,6.12.46,6.77.74-.05,18.33-1.05,18.33-1.05,0,0-2.15,16.51-2.25,17.25.65.08,6.06.83,6.72.91.08-.76,2.75-24.09,2.85-24.97-.27,0-.53.03-.53.03Z"/>
      <path class="cls-7" d="M569.19,662.94l6.71-1.16-7.61-44.23c-.21.05-.45.09-.45.09,0,0-5.56.96-6.25,1.07.12.75,2.35,13.6,2.35,13.6l-3.96.68s-2.21-12.85-2.33-13.6l-6.78,1.17,4.84,28.09c-5.37.92-21.27,3.66-21.27,3.66l-3.72-21.61s14.99-2.58,15.72-2.71l-.96-5.6s-.04,0-.1.02l-22.3,3.84c1.38,7.96,5.62,32.52,5.72,33.15l27.93-4.79,1.76,10.2,6.77-1.15c-.13-.75-4.26-24.72-4.26-24.72l3.95-.68s4.11,23.95,4.24,24.69Z"/>
      <path class="cls-7" d="M432.47,628.88s-.75-.4-2.07-1.1l8.33-15.65c-.2-.11-.41-.2-.41-.2,0,0-35.07-18.67-35.75-19.03l-2.87,5.38c.68.36,30.08,16.01,30.08,16.01,0,0-3.34,6.27-5.45,10.27l-32.8-17.46-2.85,5.36c.65.35,12.89,6.85,12.89,6.85,0,0-3.43,6.44-3.76,7.07l6.14,3.28c.33-.63,3.77-7.07,3.77-7.07l5.47,2.91s-3.42,6.43-3.76,7.06l6.16,3.29c.32-.63,3.76-7.06,3.76-7.06,0,0,10.03,5.33,10.67,5.68l2.85-5.37c-.19-.1-.4-.21-.4-.21ZM395.5,620.84l-6.06-3.22-7.51,14.1,36.89,19.64,2.88-5.38c-.69-.36-30.85-16.41-30.85-16.41,0,0,4.31-8.08,4.65-8.74Z"/>
      <path class="cls-7" d="M461.6,648.09c-.23-.03-.44-.07-.44-.07,0,0-5.66-.89-6.35-.99l-2.48,15.79,41.6,6.53.94-6.02c-.75-.12-34.8-5.46-34.8-5.46,0,0,1.41-9.05,1.53-9.79ZM499.33,632.79s1.11-7.05,1.22-7.76c-.2-.02-.43-.06-.43-.06,0,0-5.65-.9-6.34-1l-2.88,18.33-6.87-1.08,2.74-17.52c-.21-.03-.43-.07-.43-.07,0,0-27.67-4.34-28.42-4.46l-.96,6.03c.75.12,22.08,3.46,22.08,3.46,0,0-1.23,7.9-1.81,11.5-3.84-.6-6.83-1.07-6.83-1.07,0,0,.91-5.73,1.02-6.42-.21-.02-.43-.06-.43-.06,0,0-5.77-.91-6.46-1.01-.1.68-1,6.4-1,6.4,0,0-9.77-1.53-10.49-1.64l-.94,6.02,37.87,5.94-1.11,7.03,6.77,1.06c.12-.74,2.77-17.66,2.77-17.66,0,0,6.25.98,6.96,1.1l.93-5.98c-.69-.11-6.95-1.09-6.95-1.09Z"/>
      <path class="cls-7" d="M622.06,590.99s-4.93,2.73-5.54,3.07c.38.64,12.46,22.43,12.83,23.09.58-.32,5.34-2.95,5.92-3.28-.35-.65-6.18-11.15-6.18-11.15,0,0,5.4-3,6.01-3.34-.31-.56-2.57-4.64-2.89-5.21-.61.34-6.02,3.33-6.02,3.33,0,0-3.39-6.12-3.74-6.74-.19.12-.39.23-.39.23Z"/>
      <path class="cls-7" d="M636.33,616.85s-36.28,20.12-36.95,20.5c.32.58,2.61,4.7,2.93,5.27.67-.37,31.41-17.42,31.41-17.42,0,0,4.12,7.42,4.46,8.06.59-.33,5.35-2.97,5.94-3.3-.35-.64-7.04-12.69-7.4-13.32-.2.1-.39.21-.39.21Z"/>
      <path class="cls-7" d="M610.78,598.18l-11.01,6.1s-.03,0-.03,0l-2.01-3.62-6.02,3.33,2.02,3.64-11.19,6.21,2.8,5.03,4.04-2.24c-.18,2.37.28,4.8,1.51,7.02,3.5,6.3,11.73,8.42,18.38,4.72,6.65-3.68,9.21-11.79,5.72-18.08-1.24-2.21-3.05-3.88-5.16-5l3.75-2.09-2.79-5.02ZM606.19,622.5c-3.19,1.77-7.13.75-8.81-2.28-1.68-3.01-.46-6.88,2.73-8.66,3.18-1.77,7.12-.75,8.8,2.28,1.67,3.01.45,6.89-2.72,8.66Z"/>
    </g>
    <g class="cls-11">
      <path class="cls-7" d="M744.84,449.63l-5.19-3.25c5.46-2.5,5.63-7.96,5.63-7.96.21-4.26-2.28-7.33-5.92-7.31-4.81.04-6.57,4.29-8.59,9.21-2.21,5.29-5.59,10.84-12.32,11.24-8.14.49-13.65-6.7-13.24-16.6.41-9.63,7.06-14.25,7.06-14.25l6.12,2.82s-8.6,2.84-9.15,13.21c-.24,4.6,3.13,8.16,7.63,8.13,4.82-.04,6.53-4.15,8.51-8.93,2.22-5.35,4.72-11.42,12.39-11.49,7.5-.06,12.04,5.88,11.59,15.11,0,0-.12,5.91-4.52,10.08Z"/>
      <path class="cls-7" d="M294.75,517.14l6.07.66c-3.82,4.64-1.58,9.63-1.58,9.63,1.68,3.92,5.26,5.59,8.52,3.97,4.31-2.14,4.03-6.74,3.71-12.05-.34-5.72.28-12.18,6.15-15.49,7.1-4,15.22.05,19.17,9.14,3.86,8.84-.1,15.9-.1,15.9l-6.76.15s6.51-6.32,2.45-15.88c-1.79-4.24-6.38-5.97-10.42-3.96-4.32,2.14-4.05,6.58-3.73,11.75.35,5.79.75,12.35-6.12,15.75-6.71,3.33-13.39-.02-17.02-8.52,0,0-2.48-5.36-.35-11.04Z"/>
      <path class="cls-7" d="M288.16,364.84l-.44.42c-.78.8-5.22,5.44-7.13,14.64-2.94,14.12,3.64,24.59,16.61,27.29,13.26,2.75,22.9-3.83,25.77-17.64,1.13-5.4,1.34-10.95.61-16.52l-.07-.53-16.11-3.35-1.37,6.57,13.6,2.8c.78,3.18.47,6.43.01,8.65-2.22,10.67-9.76,15.24-21.24,12.85-10.75-2.23-16.22-9.3-14.19-19.11,1.03-4.94,4.26-9.8,8.28-12.06l.29-.18-4.61-3.82Z"/>
      <path class="cls-7" d="M328.86,280.82l-3.77,5.37,9.55,19.92-22.02-2.18-4.79,6.83,28.67,1.64c.34.24,14.35,10.06,14.35,10.06l3.84-5.48s-14.48-10.14-14.78-10.34l-11.05-25.82Z"/>
      <path class="cls-7" d="M721,543.75l2.63-6-13.25-17.67,22.03-2.16,3.37-7.64-28.44,3.99c-.38-.17-16.03-7.07-16.03-7.07l-2.71,6.13s16.2,7.11,16.53,7.26l15.89,23.16Z"/>
      <path class="cls-7" d="M315.65,339.4l-8.9-25.95-3.01,6.11,8.38,24.4c-1.14-.56-16.4-8.08-16.4-8.08l-2.96,6.01,37.64,18.5,2.96-6.03-18.25-8.94,25.76-6.33,3.75-7.64-28.98,7.94Z"/>
      <path class="cls-7" d="M441.22,226.54l12.4-24.48-6.5,2.11-11.63,23.01c-.41-1.2-5.62-17.39-5.62-17.39l-6.39,2.07,12.99,39.89,6.39-2.07-6.3-19.33,22.49,14.06,8.09-2.64-25.91-15.23Z"/>
      <polygon class="cls-7" points="476.21 239.78 481.23 239.28 489.12 206.13 502.66 237.14 508.42 236.57 518.16 193.43 512.4 194 504.5 228.12 490.55 196.18 486.73 196.56 478.92 230.62 465.74 198.67 458.68 199.36 476.21 239.78"/>
      <path class="cls-7" d="M541.35,196.54l-2.95-.36-22.97,40.03,5.72.72,8.45-15.02,12.85,1.55,4.45,16.59,7.82.94-13.38-44.44ZM538.04,205.73c.72,2.46,2.89,11.94,3.38,13.61l-10.23-1.23,6.84-12.38Z"/>
      <polygon class="cls-7" points="705.79 296.29 671.07 319.8 674.81 325.33 709.52 301.81 705.79 296.29"/>
      <rect class="cls-7" x="721.31" y="444.62" width="6.67" height="41.93" transform="translate(150.18 1107.35) rotate(-80.89)"/>
      <path class="cls-7" d="M643.08,263.23c-5.84,8.54-12.01,9.93-18.59,5.44-7.42-5.08-7.67-10.19-1.48-19.24l13.23-19.32-5.49-3.75-13.54,19.81c-2.86,4.29-5.52,9.18-4.32,14.19,1.04,4.35,3.99,8.12,8.85,11.45,9.29,6.36,17.98,4.78,24.46-4.69l14.09-20.58-3.94-2.7-13.26,19.39Z"/>
      <path class="cls-7" d="M372.11,270.47c7.26,7.39,7.43,13.71,1.74,19.29-6.42,6.29-11.47,5.56-19.14-2.27l-16.4-16.7-4.74,4.66,16.82,17.11c3.67,3.64,7.94,7.2,13.1,6.99,4.46-.18,8.74-2.34,12.95-6.47,8.03-7.89,8.16-16.72.12-24.91l-17.49-17.8-3.4,3.35,16.46,16.75Z"/>
      <path class="cls-7" d="M301.91,468.34c10.08-2.4,15.58.7,17.42,8.46,2.09,8.75-1.15,12.69-11.81,15.24l-22.77,5.44,1.55,6.47,23.33-5.58c5.01-1.26,10.27-3.09,12.73-7.63,2.15-3.91,2.72-8.74,1.35-14.46-2.62-10.95-10.31-15.57-21.48-12.91l-24.27,5.79,1.11,4.65,22.84-5.47Z"/>
      <polygon class="cls-7" points="684.28 341.04 686.01 344.42 731.37 340.88 728.58 335.48 692.87 338.99 716.47 311.98 713.04 305.33 684.28 341.04"/>
      <path class="cls-7" d="M700.45,366.74c1.24-.4,13.4-4.25,14.62-4.64l4.41,13.86,4.05-1.29-4.39-13.86c1.19-.37,12.03-3.81,13.21-4.19l4.78,15.11,3.44-1.08-6.79-21.45-39.98,12.67,6.9,21.8,4.65-1.48-4.9-15.46Z"/>
      <path class="cls-7" d="M743.97,479.93l-3.36-.95-3.51,12.54c-1.37-.39-37.01-10.36-37.01-10.36l-1.8,6.4,36.99,10.37-3.34,12.01,3.39.93,8.64-30.93Z"/>
      <path class="cls-7" d="M702.56,390.23l.83,6.61,20.21-2.69-17.85,20.53.94,7.06,17.84-20.42c1.18,6.82,6.72,12.22,12.75,11.42,6.88-.92,9.81-5.66,8.59-14.9l-1.74-13.13-41.58,5.51ZM727.55,393.63c1.21-.16,12.65-1.68,13.88-1.84l.84,6.3c.68,5.23-2.07,7.84-5.84,8.2-3.93.37-7.16-1.28-8.12-7.17l-.75-5.49Z"/>
      <path class="cls-7" d="M401.32,222l-4.05,2.57,16,25.18c-14.74-3.81-40.43-9.66-40.43-9.66l-2.88,1.82,22.47,35.39,4.05-2.57s-9.35-14.73-16.84-26.52l41.75,10.7,2.43-1.53-22.51-35.38Z"/>
      <path class="cls-7" d="M275.25,417.4l.1,4.8,29.84-.63c-10.89,10.64-29.21,29.58-29.21,29.58l.06,3.39,41.93-.89-.1-4.8s-17.43.37-31.41.67l30.78-30.16-.06-2.88-41.92.92Z"/>
      <path class="cls-7" d="M604.5,213.32l-4.55-1.53-9.51,28.28c-6.32-13.85-17.94-37.5-17.94-37.5l-3.22-1.09-13.36,39.74,4.55,1.53s5.56-16.53,10.01-29.77l17.95,39.17,2.73.92,13.34-39.75Z"/>
      <path class="cls-7" d="M697.45,284.01l-3.27-3.51-21.85,20.32c1.05-15.19,2.13-41.52,2.13-41.52l-2.31-2.49-30.7,28.56,3.26,3.51s12.78-11.88,23.01-21.4l-2.91,43,1.96,2.1,30.69-28.57Z"/>
    </g>
    <g>
      <g>
        <path class="cls-8" d="M527.06,379.16c-.04-34.26,27.62-62.07,61.79-62.12,8.27-.01,16.15,1.62,23.36,4.56-54.79-50.42-140.08-49.03-193.15,4.17-51.41,51.55-54.1,133.25-8.2,188,11.86-15.58,28.12-33.56,48.08-47.63,15.58-10.98,37.21-21.98,54.6-23.64,16.47-1.57,40.99-.01,55.85,7.1-11.63-11.89-23.88-25.23-29.88-33.21-7.8-10.36-12.43-23.25-12.44-37.22Z"/>
        <path class="cls-6" d="M522.72,424.52l-65.55-125.87c-12.08,5.83-23.47,13.5-33.81,23.02l98.93,102.68.43.16Z"/>
        <path class="cls-5" d="M523.07,424.65l8.46-139.13c-11.3-1.11-22.72-.85-33.96.79l25.37,138.29.13.05Z"/>
        <path class="cls-4" d="M522.29,424.36l-134.78-49.87c-4.56,11.96-7.41,24.42-8.57,37.01l143.69,13.22-.34-.36Z"/>
        <path class="cls-3" d="M379.84,444.51c1.41,9.71,3.88,19.31,7.34,28.61l135.06-48.05-142.4,19.44Z"/>
        <path class="cls-2" d="M408.3,547.87c-4.06-3.54-11.01-10.08-17.23-18.09-28.52-31.91-61.15-115.67-7.13-191.75,22.3-31.37,54.33-52.5,86.15-61.1,74.23-20.05,131.32,14.97,157.49,43.21,2.91,3.15,2.5,7.16.29,9.02-3.24,2.72-6.15,1.32-12.69-.57-10.17-2.94-18.93-3.63-28.36-2.41-21.81,2.81-40.68,23.06-38.02,51.32,2.43,25.79,22.34,44.4,36.32,56.68,49.13,43.14,32.77,89.47,28.78,99.65-13.52,34.56-48.25,58.96-93.32,59.02-18.71.02-45.77-4.8-72.98-21.99-1.05-.47-2.09-1.87-.81-4.19,2.07-5.25,10.73-20.59,14.47-25.01,13.53,15.6,36.36,30.26,61.68,31.16,34.63,1.22,56.92-17.54,65.06-41.34,9.15-26.73-.65-53.94-26.56-78.48-22.33-21.15-42.26-40.73-43.46-74.33-1.53-43.03,35.91-68.65,70.73-66.98,1.05.05-48.19-35.37-111.29-14.15-30.89,10.4-49.36,28.66-58.22,39.05-1.32,1.61-.49,2.83-.03,3.48.98,1.41,22.48,31.31,22.48,31.31l-38.72-8.85s-1.62-.38-2.41.94c-12.28,21.23-30.33,82.59,10.23,138.42,0,0,34.41-54.67,102.88-59.42,4.56-.31,3.98,1.32.99,2.41-61.14,22.56-85.22,67.45-100.76,102.07-.96,2.14-3.49,2.77-5.56.95Z"/>
      </g>
      <g>
        <path class="cls-10" d="M471.3,505.64s3.82-1.71,4.9-2.31l.04,26.53h4.8s-.05-31.21-.05-31.21l-.78-.52-.25.12c-3.49,1.74-7.06,3.37-10.09,4.61l1.42,2.77Z"/>
        <path class="cls-10" d="M496.8,514.23c3.89,0,5.78,2,5.78,6.12,0,4.21-2.61,6.94-6.65,6.95-2.93,0-4.92-1.96-5.64-2.8l-.6-.69-1.15,4.13.37.18c1.67.79,3.8,1.6,6.93,1.59,6.84,0,11.8-4.18,11.79-9.92,0-5.26-4.06-6.77-6.54-7.2,2.69-1.15,5.12-3.61,5.11-7.34,0-4.37-3.46-7.06-8.99-7.08-4.69-.02-7.08,3.06-7.08,3.06l2.06,3.57.35-1.01c.55-1.61,2.27-3.23,4.51-3.24,1.98,0,4.28,1.3,4.28,4.99,0,2.87-.79,6.3-4.54,6.3l-2.49-.19v2.95s1.4-.37,2.5-.34Z"/>
        <path class="cls-10" d="M514.19,523.49l1.29,5.05s1.99,1.14,4.79,1.13c8-.04,13.58-7.53,13.57-18.29-.01-11.99-7.32-13.27-10.46-13.26-6.09,0-10.34,4.12-10.33,10.01.01,5.75,3.5,9.32,9.12,9.32,2.85,0,5.08-1.13,6.73-3.23-.32,6.7-2.96,12.82-8.43,12.86-4.39.03-6.27-3.58-6.27-3.58ZM522.91,514.81c-3.35,0-4.98-2.19-4.99-6.7,0-4.55,2.17-7.61,5.41-7.62,3.24,0,5.43,2.59,5.44,6.45,0,3.91-2,7.86-5.87,7.86Z"/>
        <path class="cls-10" d="M552.89,511.69c2.72-1.22,4.49-3.68,4.48-6.61,0-3.23-2.35-7-8.98-6.99-5.03,0-8.81,3.25-8.81,7.54,0,3.2,2.18,5.45,4.51,6.31-3.87,1.54-6.07,4.51-6.06,8.54,0,5.48,4.18,9.16,10.4,9.15,6.03,0,10.4-4.3,10.39-10.2-.01-5.44-4.03-7.21-5.93-7.75ZM544.18,505.68c0-1.22.3-5.21,4.26-5.21,3.9,0,4.33,3.63,4.34,5.2,0,1.22-.31,5.21-4.33,5.21-3.95,0-4.27-3.98-4.27-5.2ZM548.43,527.22c-3.3,0-5.53-2.8-5.54-6.97,0-4.18,2.22-6.98,5.52-6.98,3.3,0,5.51,2.8,5.52,6.97,0,4.24-2.15,6.98-5.5,6.99Z"/>
      </g>
    </g>
  </g>
  <g>
    <path class="cls-9" d="M297.4,659.41h17.58v35.16h36.8v-35.16h17.58v84.84h-17.58v-35.21h-36.8v35.21h-17.58v-84.84Z"/>
    <path class="cls-9" d="M383.71,659.41h56.95v14.53h-39.38v20.62h36.39v14.47h-36.39v20.68h39.49v14.53h-57.07v-84.84Z"/>
    <path class="cls-9" d="M454.31,659.41h17.58v70.31h36.5v14.53h-54.08v-84.84Z"/>
    <path class="cls-9" d="M519.82,659.41h33.16c6.33,0,11.79,1.2,16.38,3.6,4.59,2.4,8.08,5.77,10.46,10.11,2.38,4.34,3.57,9.32,3.57,14.94s-1.22,10.63-3.66,14.91c-2.44,4.28-5.98,7.62-10.61,10.02s-10.15,3.6-16.55,3.6h-21.33v-14.18h18.57c3.4,0,6.26-.59,8.58-1.79,2.32-1.19,4.05-2.86,5.19-5.01,1.13-2.15,1.7-4.67,1.7-7.56s-.57-5.4-1.7-7.53c-1.13-2.13-2.86-3.77-5.19-4.92-2.33-1.15-5.21-1.73-8.64-1.73h-12.36v70.37h-17.58v-84.84Z"/>
    <path class="cls-9" d="M594.59,659.41h56.95v14.53h-39.38v20.62h36.39v14.47h-36.39v20.68h39.49v14.53h-57.07v-84.84Z"/>
    <path class="cls-9" d="M665.19,659.41h33.16c6.41,0,11.88,1.12,16.44,3.37,4.55,2.25,8.02,5.46,10.4,9.64,2.38,4.18,3.57,9.06,3.57,14.65s-1.2,10.36-3.6,14.44c-2.4,4.08-5.93,7.21-10.58,9.38-4.65,2.17-10.2,3.25-16.64,3.25h-22.44v-14.36h19.69c3.52,0,6.41-.48,8.67-1.44,2.26-.96,3.96-2.37,5.1-4.25,1.13-1.88,1.7-4.22,1.7-7.03s-.57-5.31-1.7-7.27c-1.13-1.95-2.85-3.43-5.16-4.42-2.31-1-5.2-1.49-8.67-1.49h-12.36v70.37h-17.58v-84.84ZM731.81,744.25h-19.57l-20.57-38.55h19.04l21.09,38.55Z"/>
  </g>
</svg>